PathFileType	4	(X/Y/Z)	0_1_34_p1_0-240.trc
DataRate	CameraRate	NumFrames	NumMarkers	Units	OrigDataRate	OrigDataStartFrame	OrigNumFrames
60	60	6	27	m	60	150	240
Frame#	Time	RHip			RKnee			RAnkle			RBigToe			RSmallToe			RHeel			LHip			LKnee			LAnkle			LBigToe			LSmallToe			LHeel			Neck			Head			Nose			RShoulder			RElbow			RWrist			RThumb			RIndex			RPinky			LShoulder			LElbow			LWrist			LThumb			LIndex			LPinky		
		X1	Y1	Z1	X2	Y2	Z2	X3	Y3	Z3	X4	Y4	Z4	X5	Y5	Z5	X6	Y6	Z6	X7	Y7	Z7	X8	Y8	Z8	X9	Y9	Z9	X10	Y10	Z10	X11	Y11	Z11	X12	Y12	Z12	X13	Y13	Z13	X14	Y14	Z14	X15	Y15	Z15	X16	Y16	Z16	X17	Y17	Z17	X18	Y18	Z18	X19	Y19	Z19	X20	Y20	Z20	X21	Y21	Z21	X22	Y22	Z22	X23	Y23	Z23	X24	Y24	Z24	X25	Y25	Z25	X26	Y26	Z26	X27	Y27	Z27
151	2.5166666666666666	0.13847688516765805	0.1495403758704005	0.06406021294542977	0.13764286589762453	0.11305728313305786	-0.379776577558227	0.16641804781937902	0.186956567482774	-0.7614178992759738	0.15902394013773274	0.013209930764899432	-0.7499184670631222	0.09449943808386892	0.08651670238361332	-0.7945530345828495	0.17654806771188664	0.2264737323664269	-0.8170472079614107	0.33805016527021947	0.15404793524252172	0.059793137045456746	0.3416018935890561	0.10741080486064866	-0.3711054631232597	0.3648633916935471	0.21034149254149093	-0.7528424747836922	0.33340887660822693	0.06731434013720496	-0.7891914952673805	0.3833233899543105	0.10864713017145218	-0.7976871429676141	0.34636729694542423	0.2561320731269353	-0.8128711690967936	0.22734191920608182	0.20194294417422287	0.5116114317360249	0.1995529881028344	0.1407133965098642	0.7715166813933044	0.21677477707427278	0.04791418396115095	0.6468193321911179	0.07603621057721256	0.16918060913628896	0.46088796424210704	0.012676075710271238	0.34333350028758813	0.24659911748158275	0.006488689311514697	0.42186496529967793	0.0546170831550319	0.04615729939238984	0.4759790452575156	-0.07201007973603271	0.0205870573974514	0.452725866908125	-0.0730408877956915	0.021964025061657688	0.4871255726696359	-0.10006737121207238	0.3647175524519753	0.20556543919360204	0.47300703405925393	0.48379322285449655	0.3084437623109012	0.2703751491305702	0.5900369699664317	0.3960933379425724	0.07808719074308504	0.6246938682377231	0.5035521845390004	-0.014294314153397105	0.6456416312352646	0.5198589954406106	-0.032257313163011524	0.641328755453562	0.5236825867973262	-0.042730066560785866
152	2.533333333333333	0.1352740098577553	0.1616391665141711	0.0551764883943581	0.14262643990188892	0.12803918663905034	-0.3843146962690393	0.16686313108339246	0.18899348856912668	-0.7687950470923458	0.15924291227692305	0.013010810404833265	-0.7587848837271817	0.09770942175932643	0.07500632509152325	-0.7865543704108632	0.1767490447980926	0.2269772983181827	-0.8278542672210315	0.3380083634428992	0.1557520023750207	0.0591362613570086	0.3410302664833837	0.1086840790516892	-0.36741199927188917	0.364937304846408	0.2105797656089875	-0.752909713470091	0.33345281680086547	0.06753589355040632	-0.7890117633864494	0.3833504595381226	0.10872052031337233	-0.7976287704733426	0.3436677094998159	0.26903931437894546	-0.8211606549234566	0.2274848889613956	0.20152231800508455	0.5158775821586892	0.2009015268459962	0.14991683807327472	0.7772076823233521	0.21435451713670728	0.061371654484306884	0.6538615487702808	0.07610999163811348	0.17062208343929536	0.4644807579328465	0.01323314115808547	0.34773632855761644	0.25191159030841137	-0.005970684875527907	0.39798175214875586	0.07141742849329219	0.035262658820243244	0.48496096562762087	-0.06680581139786791	0.02047777047661647	0.45378781957002634	-0.05915364425749477	0.02232173205929562	0.48823084861663685	-0.07361087837892524	0.3629859543175122	0.21714113217365794	0.4775729101933466	0.48373545537803847	0.30731849340236556	0.2742830483603309	0.591832393376876	0.43151905868079293	0.08681063583607347	0.6318572542047516	0.5112117072195421	-0.003548058868428375	0.645631739893826	0.5172615884342197	-0.01583492582625452	0.6398335833889768	0.5350007153750405	-0.02647945106274032
153	2.55	0.13620406148615474	0.1598743615185331	0.055772129632302374	0.1444211483718169	0.12868608678225013	-0.37716125827350133	0.16773909130197237	0.18822114084774624	-0.7629550519951204	0.1592406055551224	0.013650238262906527	-0.7591669907802566	0.09452597900551804	0.08643277763548586	-0.7947323447219985	0.17781179907349332	0.22617672856511745	-0.8216562563736663	0.34401198035129377	0.16629927091348615	0.05492639039980162	0.3423518701720933	0.10717487391957495	-0.36635411810984914	0.36463608548314946	0.20893792678424739	-0.756505623232384	0.32764287326176367	0.055518067407103126	-0.7798654827483408	0.38423679879480616	0.10802515341552858	-0.8015457733329178	0.34993673661580216	0.2841179249622501	-0.8320888313524797	0.22738521875894552	0.2024163033160482	0.5193060135624689	0.20096755999775534	0.15095165679348257	0.7804985986103924	0.21437108724986584	0.0630154684897121	0.6572583114803793	0.07640466158975279	0.1702020003805575	0.46812625864659296	0.014984177258062737	0.3569262354074508	0.27451126737304565	-0.004223990772284971	0.4291390126512071	0.06624733223502144	0.03531318361765208	0.48572274703511964	-0.06716118384564598	0.023908854917108313	0.494191126962937	-0.06877109356438627	0.015308610561656248	0.5397450398198783	-0.08580961435341886	0.3649872206431542	0.2058736354962589	0.48052562167959817	0.4826667889833738	0.30809278267628837	0.28175938735969247	0.5917663303778177	0.43417499247497204	0.09539454186555651	0.631134793208054	0.530157078738982	-0.005456118423391641	0.6448788170027289	0.5292875944837928	-0.008067453018718938	0.6386263679507139	0.5468701290540968	-0.016689305002804907
154	2.566666666666667	0.13709658769237806	0.15750318256634205	0.05637612978257474	0.14058160363621552	0.1302864046837146	-0.3785191824116634	0.16415667583599539	0.20396479133910658	-0.7747954594559828	0.15961063334879963	0.013266354534980717	-0.7593065423845544	0.09756008631314522	0.07544157720767117	-0.7869499765136624	0.18052456878239298	0.22632739398408297	-0.8272377294899231	0.3443801005669929	0.16563647659896716	0.059191488338376765	0.3423269031525377	0.10730951161364632	-0.3664516458135939	0.361826377883999	0.2208392987116284	-0.7696399718885363	0.3307225792266839	0.0423183638865643	-0.7748448683112638	0.37758003309799604	0.09281726968985833	-0.7949728831027978	0.34966357441413876	0.2829734083551597	-0.835648238489	0.2274051857848692	0.20241729659353452	0.5194281266133791	0.20092463405968775	0.15092656601790347	0.7806581676745178	0.21449515192225613	0.06281308377858859	0.6609271510944359	0.0766676912714084	0.1695948869344407	0.4718380304030333	0.0013743032400537099	0.3235101982886289	0.28528059040083137	-0.0038309885840411982	0.43327917551481737	0.07139039171953113	0.0359606373742583	0.49006144807876684	-0.062477479317592136	0.023711538469358293	0.49478607934062563	-0.06811877115142595	0.015157241766424986	0.5397738542490951	-0.0849723233457473	0.3649792983203598	0.20597498445069096	0.4806526544897473	0.48310715353075506	0.30975344344569244	0.2820328356133493	0.5913049155074064	0.43545583733586096	0.1048081882026241	0.6314888364747239	0.5211816847163742	-0.00043533308563832856	0.6451748510902489	0.5187060289829476	-0.0006063311422850852	0.6387965842443002	0.5455280666916482	-0.014008179079487069
155	2.5833333333333335	0.13616713836891337	0.1601921237569463	0.05557392174024618	0.13981948415310594	0.1314401259733767	-0.38320977455375743	0.1636605396046606	0.20232860813240877	-0.7782311153929504	0.16509517109631278	0.02565136631014276	-0.7694641573906854	0.09441919128456384	0.0890192712275558	-0.796792266244028	0.17688509514191136	0.23945230371749707	-0.8368122852187374	0.3440835980210283	0.16647293492369206	0.05471641547204695	0.3420125364001932	0.10985756456568264	-0.3682206168686796	0.3611799581357837	0.22176741653510046	-0.7756591126089905	0.32981383487843086	0.0426295909595153	-0.7708100017710672	0.37755525576571736	0.09250065735826268	-0.7950400561395934	0.3490239953504823	0.2841067152478538	-0.8415241390043195	0.22750530090891577	0.20341546131030025	0.5226698507804036	0.200888235690985	0.15100155908628757	0.7806940718920655	0.2145170492183968	0.06306163297185428	0.6608973648337674	0.07651404420096207	0.1713352107443481	0.47182954164346025	0.014349035444740567	0.35404150294237735	0.2812403907536782	-0.0015526811781702058	0.4682783335878851	0.05889372473324351	0.022548313212227746	0.4617891891632085	-0.035885193875595654	0.023915042118859278	0.49798222083401733	-0.06207971656836184	0.015163777293744381	0.5401341978165902	-0.07232748462124032	0.36314534677990923	0.21659756134117808	0.4813638982943188	0.4828063547494782	0.31141020784008183	0.28607531421770205	0.5910437617742492	0.43735624121870176	0.10857618621103209	0.6314088680701774	0.532171571291214	0.0037177998288000945	0.6447675772338046	0.5280429656613519	-0.0013087203857917787	0.6387136436349315	0.5469294120884779	-0.013058842529285162
156	2.6	0.13567919189301214	0.16110518891915795	0.051056606454654756	0.1387124987844586	0.1313643369180805	-0.38272639004028314	0.16364354965285877	0.20212926319144503	-0.7781940907639653	0.16510811901280525	0.026017981223433857	-0.7695328692514746	0.09742336304819887	0.07845904990658772	-0.7889759602284627	0.18022586806725918	0.22616161070176358	-0.8276784766069366	0.34365312555992544	0.16598575085501033	0.0465480868204835	0.3417810485610563	0.10846005722611439	-0.37186296182379397	0.36154314001150206	0.21954326092152335	-0.7740045006467131	0.32622428000974674	0.044396505944749705	-0.7715251215537142	0.38370609800479466	0.10558640777079654	-0.8049525211111633	0.3486430622786005	0.2829263029470413	-0.8447337280719637	0.22749551304329746	0.20345291964931578	0.5225257644157129	0.2010088089261853	0.15110992947783666	0.7806052849811056	0.2145791899981197	0.06323570014231757	0.6607759411597902	0.07643689808309871	0.17141798923453197	0.4717600300995484	0.015059233876900831	0.35801610357790153	0.2862784320038675	-0.002191992758884149	0.4650032874350589	0.06629534895663755	0.023247263388649877	0.4664380292156653	-0.030634738903808356	0.025758387450817717	0.53052424465374	-0.06915210619091079	0.017592716652504996	0.578779808584712	-0.08752722718336299	0.36503389937013736	0.20552748328606438	0.48408602591834116	0.48230359164538195	0.31468719157355013	0.2868708002098951	0.5906547876299512	0.43820522899735465	0.11487280959085786	0.6311492274204655	0.5306991534642911	-0.0007724701134798288	0.644682602762218	0.5271163481528659	0.0006187025425740699	0.6385119432164479	0.5456940058799187	-0.010110579153606117
